# xmcd
#
# Track frame offsets:
#	150
#	24645
#	38258
#	47453
#	55666
#	68484
#	76172
#	89065
#	100270
#	113635
#	126648
#	136053
#
# Disc length: 1935 seconds
#
# Revision: 0
# Processed by: cddbd v1.5.2PL0 Copyright (c) Steve Scherf et al.
# Submitted via: audiograbber 1.83.01
#
DISCID=90078d0c
DTITLE=Marty Robbins - Return Of The Gunfighter
DYEAR=1963
DGENRE=Country
TTITLE0=San Angelo
TTITLE1=Man Walks Among Us
TTITLE2=Tall Handsome Stranger
TTITLE3=Dusty Winds
TTITLE4=The Masters Call
TTITLE5=The Fastest Gun Around
TTITLE6=Old Red
TTITLE7=The Bend In The River
TTITLE8=Johnny Fedavo
TTITLE9=Abilene Rose
TTITLE10=Doggone Cowboy
TTITLE11=The Red Hills Of Utah
EXTD=
EXTT0=
EXTT1=
EXTT2=
EXTT3=
EXTT4=
EXTT5=
EXTT6=
EXTT7=
EXTT8=
EXTT9=
EXTT10=
EXTT11=
PLAYORDER=
